<svg id="SvgjsSvg1014" width="288" height="288" xmlns="http://www.w3.org/2000/svg" version="1.1" xmlns:xlink="http://www.w3.org/1999/xlink" xmlns:svgjs="http://svgjs.com/svgjs"><defs id="SvgjsDefs1015"></defs><g id="SvgjsG1016" transform="matrix(1,0,0,1,0,0)"><svg xmlns="http://www.w3.org/2000/svg" enable-background="new 0 0 50 50" viewBox="0 0 50 50" width="288" height="288"><path d="M32.97254,18.65134c-0.39063,0.39063-0.39063,1.02344,0,1.41406c0.39061,0.39062,1.02343,0.39064,1.41406,0
		c2.50391-2.50391,3.88281-5.83691,3.88281-9.38672c-0.00098-3.54981-1.37988-6.88281-3.88379-9.38574
		c-0.39063-0.39063-1.02344-0.39063-1.41406,0s-0.39063,1.02344,0,1.41406c2.12598,2.12598,3.29785,4.95703,3.29785,7.97168
		C36.26941,13.69431,35.09851,16.52536,32.97254,18.65134z" fill="#ffffff" class="color000 svgShape"></path><path d="M30.07312 4.19138c-.39063.39063-.39063 1.02344 0 1.41406 1.35352 1.35254 2.09863 3.1543 2.09863 5.07422 0 1.91895-.74512 3.7207-2.09766 5.07324-.39063.39062-.39063 1.02344 0 1.41406.39062.39062 1.02343.39064 1.41406 0 1.73047-1.73047 2.6836-4.03418 2.6836-6.48828 0-2.45313-.9541-4.75684-2.68457-6.48731C31.09656 3.80075 30.46375 3.80075 30.07312 4.19138zM15.61512 1.29294c-2.50391 2.50293-3.88281 5.83594-3.88379 9.38574 0 3.5498 1.37891 6.88281 3.88281 9.38672.39061.39062 1.02343.39064 1.41406 0 .39063-.39063.39063-1.02344 0-1.41406-2.12598-2.12598-3.29687-4.95703-3.29687-7.97266 0-3.01465 1.17188-5.8457 3.29785-7.97168.39063-.39063.39063-1.02344 0-1.41406S16.00574.90232 15.61512 1.29294z" fill="#ffffff" class="color000 svgShape"></path><path d="M18.51258,17.16696c0.39062,0.39062,1.02343,0.39064,1.41406,0c0.39063-0.39063,0.39063-1.02344,0-1.41406
		c-2.79785-2.79785-2.79785-7.34961,0-10.14746c0.39063-0.39063,0.39063-1.02344,0-1.41406s-1.02344-0.39063-1.41406,0
		C14.93543,7.76853,14.93543,13.58982,18.51258,17.16696z" fill="#ffffff" class="color000 svgShape"></path><path d="M35.98304,38.37619l4.12915,10.00562c0.20945,0.50756,0.79026,0.75275,1.30664,0.54297
		c0.50977-0.21094,0.75293-0.7959,0.54297-1.30664l-13.6648-33.112c1.07935-0.93134,1.77808-2.29205,1.77808-3.82648
		c0-2.79883-2.27637-5.07617-5.0752-5.07617s-5.0752,2.27734-5.0752,5.07617c0,1.60754,0.76538,3.02563,1.93506,3.95612
		c-3.25555,7.7691-10.53597,25.14313-13.81885,32.97748c-0.21387,0.50977,0.02637,1.0957,0.53516,1.30859
		c0.49984,0.21147,1.09265-0.019,1.30859-0.53516l4.21826-10.06635l10.89697-7.06384L35.98304,38.37619z M26.83789,30.06503
		l4.50903-2.92297l3.29358,7.9809L26.83789,30.06503z M24.99988,7.60349c1.69531,0,3.0752,1.37988,3.0752,3.07617
		c0,1.69531-1.37988,3.0752-3.0752,3.0752s-3.0752-1.37988-3.0752-3.0752C21.92468,8.98337,23.30457,7.60349,24.99988,7.60349z
		 M24.99988,15.75486c0.53979,0,1.05029-0.1073,1.53882-0.2641l4.03247,9.7713l-5.57129,3.61151l-5.4563-3.53705l4.10181-9.78845
		C24.07935,15.66922,24.52771,15.75486,24.99988,15.75486z M15.47376,35.04874l3.28454-7.83826l4.40356,2.85455L15.47376,35.04874z" fill="#ffffff" class="color000 svgShape"></path></svg></g></svg>