<svg xmlns="http://www.w3.org/2000/svg" width="40" height="50" viewBox="0 0 40 50" fill="white">
  <g id="exhibition-v3" transform="translate(-235 -146)">
    <path id="Path_1109" data-name="Path 1109" d="M273.684,170.605h-2.851V156.066h2.7a1.316,1.316,0,0,0,1.316-1.316v-7.434A1.316,1.316,0,0,0,273.531,146H236.426a1.316,1.316,0,0,0-1.316,1.316v7.434a1.316,1.316,0,0,0,1.316,1.316h2.7v14.539h-2.807A1.316,1.316,0,0,0,235,171.921v22.763A1.316,1.316,0,0,0,236.316,196h37.368A1.316,1.316,0,0,0,275,194.684V171.921A1.316,1.316,0,0,0,273.684,170.605Zm-35.943-21.974h34.474v4.8H237.741Zm4.013,7.5H268.2v14.474H241.755Zm30.614,37.237H237.632V173.237h34.737Z"/>
    <path id="Path_1110" data-name="Path 1110" d="M334.934,617.461H306.316A1.316,1.316,0,0,1,305,616.145v-7.829A1.316,1.316,0,0,1,306.316,607h28.618a1.316,1.316,0,0,1,1.316,1.316v7.829A1.316,1.316,0,0,1,334.934,617.461Zm-27.3-2.632h25.987v-5.2H307.632Z" transform="translate(-65.395 -430.671)"/>
    <circle id="Ellipse_68" data-name="Ellipse 68" cx="1.283" cy="1.283" r="1.283" transform="translate(267.829 149.75)"/>
    <circle id="Ellipse_69" data-name="Ellipse 69" cx="1.283" cy="1.283" r="1.283" transform="translate(263.947 149.75)"/>
  </g>
</svg>
