<?xml version="1.0" encoding="utf-8"?>
<!-- Generator: Adobe Illustrator 25.2.0, SVG Export Plug-In . SVG Version: 6.00 Build 0)  -->
<svg version="1.1" id="Layer_1" xmlns="http://www.w3.org/2000/svg" xmlns:xlink="http://www.w3.org/1999/xlink" x="0px" y="0px"
	 viewBox="0 0 1080 1080" fill="white" style="enable-background:new 0 0 1080 1080;" xml:space="preserve">
<g>
	<path d="M564.9,384c28.9-9.7,49.8-37.1,49.8-69.3c0-40.3-32.8-73.1-73.1-73.1s-73.1,32.8-73.1,73.1c0,32.1,20.8,59.4,49.6,69.2
		l-53.8,236.5l-57.7,253.7c-1.4,5.9,0.1,12.2,3.9,16.9s9.5,7.5,15.6,7.5h231c6.1,0,11.8-2.8,15.6-7.5c3.8-4.8,5.2-11,3.9-16.9
		L564.9,384z M503.2,629.3l0.9-3.8l81.9,78.4l-117.6,78.5L503.2,629.3z M514.4,580l27-118.7l42.1,184.9L514.4,580z M541.6,281.5
		c18.3,0,33.1,14.9,33.1,33.1s-14.9,33.1-33.1,33.1c-18.3,0-33.1-14.9-33.1-33.1S523.3,281.5,541.6,281.5z M451,858.5l4.4-19.4
		l149.3-99.7l27.1,119.1H451z"/>
	<path d="M624,380.7c-8.4,7.2-9.3,19.8-2.1,28.2c4,4.6,9.5,6.9,15.2,6.9c4.6,0,9.3-1.6,13.1-4.9c3.8-3.3,7.5-6.8,10.8-10.5
		c22.8-25,34.6-57.4,33-91.3c-1.5-33.8-16.2-65-41.2-87.9c-8.2-7.4-20.8-6.9-28.3,1.3c-7.4,8.2-6.9,20.8,1.3,28.3
		c17.1,15.6,27.1,37,28.2,60.2c1.1,23.2-7,45.3-22.6,62.5C629.1,376,626.6,378.4,624,380.7z"/>
	<path d="M788.8,298c-2.3-49.6-23.7-95.3-60.4-128.8c-8.2-7.4-20.8-6.9-28.3,1.3c-7.4,8.2-6.9,20.8,1.3,28.3
		c28.8,26.3,45.6,62.1,47.4,101c1.8,38.9-11.7,76.2-38,104.9c-3.9,4.3-8.1,8.4-12.5,12.1c-8.4,7.2-9.3,19.8-2.1,28.2
		c4,4.6,9.5,6.9,15.2,6.9c4.6,0,9.3-1.6,13.1-4.9c5.6-4.8,10.9-10,15.9-15.5C773.9,395.1,791.1,347.6,788.8,298z"/>
	<path d="M420.3,400.4c3.4,3.7,7,7.3,10.8,10.5c3.8,3.3,8.4,4.9,13.1,4.9c5.6,0,11.2-2.4,15.2-6.9c7.2-8.4,6.3-21-2.1-28.2
		c-2.6-2.2-5.1-4.7-7.4-7.2c-15.6-17.1-23.7-39.3-22.6-62.5c1.1-23.2,11.1-44.5,28.2-60.2c8.2-7.4,8.7-20.1,1.3-28.3
		c-7.4-8.2-20.1-8.7-28.3-1.3c-25,22.8-39.6,54-41.2,87.9C385.7,343,397.5,375.4,420.3,400.4z"/>
	<path d="M389.6,416.9c-4.4-3.8-8.6-7.9-12.5-12.1c-26.3-28.8-39.7-66-38-104.9c1.8-38.9,18.6-74.8,47.4-101.1
		c8.2-7.4,8.7-20.1,1.3-28.3c-7.4-8.2-20.1-8.7-28.3-1.3c-36.7,33.5-58.1,79.2-60.4,128.8c-2.3,49.6,14.9,97.1,48.4,133.7
		c5,5.4,10.3,10.6,15.9,15.5c3.8,3.3,8.4,4.9,13.1,4.9c5.6,0,11.2-2.4,15.2-6.9C398.9,436.7,397.9,424.1,389.6,416.9z"/>
</g>
</svg>
