<?xml version="1.0" encoding="utf-8"?>
<!-- Generator: Adobe Illustrator 25.2.0, SVG Export Plug-In . SVG Version: 6.00 Build 0)  -->
<svg version="1.1" id="Layer_1" xmlns="http://www.w3.org/2000/svg" xmlns:xlink="http://www.w3.org/1999/xlink" x="0px" y="0px"
	 viewBox="0 0 1080 1080" fill="white" style="enable-background:new 0 0 1080 1080;" xml:space="preserve">
<path d="M794.3,483.1c93.3,0,169.2-75.9,169.2-169.2s-75.9-169.2-169.2-169.2c-92.5,0-168,74.7-169.2,166.9L427,396.7
	c-29.4-50.2-83.9-84-146.1-84c-93.3,0-169.2,75.9-169.2,169.2c0,93.3,75.9,169.2,169.2,169.2c49.4,0,93.9-21.3,124.9-55.1l89,79.2
	c-2.5,11.5-3.8,23.3-3.8,35.5c0,93.3,75.9,169.2,169.2,169.2S829.4,804,829.4,710.7c0-53.8-25.2-101.8-64.5-132.8l24.7-94.8
	C791.2,483.1,792.7,483.1,794.3,483.1z M714.4,421.7c0.3-21,8.7-40.6,23.5-55.5c14.7-14.7,34.1-23,54.8-23.5c0.2,0,0.3,0,0.5,0
	c0.7,0,1.3,0,2-0.1c43.4,0.3,78.8,35.1,79.9,78.4c-22.5,17-50.5,27.1-80.8,27.1C764.4,448.1,736.7,438.3,714.4,421.7z M756.4,270.8
	c0-20.3,16.5-36.8,36.8-36.8c20.3,0,36.8,16.5,36.8,36.8c0,19.6-15.4,35.7-34.8,36.8c-0.2,0-0.3,0-0.5,0c0,0,0,0,0,0
	c-0.9,0-1.8,0-2.7,0C772.3,307,756.4,290.8,756.4,270.8z M794.3,179.7c74,0,134.2,60.2,134.2,134.2c0,28-8.6,54-23.3,75.5
	c-9.3-30.6-31-55.8-59.3-69.8c11.9-12.8,19.1-29.9,19.1-48.8c0-39.6-32.2-71.8-71.8-71.8c-39.6,0-71.8,32.2-71.8,71.8
	c0,19.3,7.7,36.8,20.1,49.7c-10.3,5.4-19.9,12.4-28.3,20.8c-13.9,13.9-23.8,30.6-29.1,48.9c-13.3-19.1-21.7-41.8-23.6-66.3
	c0.1-1.3,0-2.7-0.2-4c-0.1-2-0.1-4-0.1-6.1C660.1,239.9,720.3,179.7,794.3,179.7z M146.7,481.9c0-74,60.2-134.2,134.2-134.2
	s134.2,60.2,134.2,134.2c0,27.9-8.5,53.8-23.1,75.2c-9.1-30.7-30.7-56-58.8-70.2c11.5-12.7,18.5-29.6,18.5-48.1
	c0-39.6-32.2-71.8-71.8-71.8S208,399.3,208,438.9c0,19,7.4,36.2,19.5,49.1c-10.4,5.5-20,12.7-28.5,21.3
	c-13.6,13.9-23.3,30.6-28.5,48.8C155.5,536.4,146.7,510.2,146.7,481.9z M280.2,474.7c-2.5,0-5,0.1-7.5,0.3
	c-16.9-3.4-29.6-18.3-29.6-36.1c0-20.3,16.5-36.8,36.8-36.8s36.8,16.5,36.8,36.8c0,17.6-12.4,32.4-29,36
	C285.2,474.7,282.7,474.6,280.2,474.7z M201,589.7c0.1-21,8.2-40.8,23-55.9c13-13.2,29.7-21.4,47.9-23.6c2.6,0.3,5.3,0.5,8.1,0.5
	c3.2,0,6.4-0.2,9.5-0.6c40.2,4,71.9,37.7,72.4,78.9c-22.5,17-50.5,27.2-80.9,27.2C251,616.2,223.3,606.3,201,589.7z M580.3,818.5
	c0.1-21,8.2-40.8,23-55.9c13-13.2,29.7-21.4,47.9-23.6c2.6,0.3,5.3,0.5,8.1,0.5c3.2,0,6.4-0.2,9.5-0.6c18.2,1.8,35.1,9.6,48.3,22.6
	c15.3,15,23.8,35,24.1,56.3c-22.5,17-50.5,27.2-80.9,27.2C630.3,844.9,602.6,835.1,580.3,818.5z M622.3,667.7
	c0-20.3,16.5-36.8,36.8-36.8s36.8,16.5,36.8,36.8c0,17.6-12.4,32.3-28.9,36c-2.1-0.1-4.2-0.2-6.4-0.2c-0.4,0-0.8,0-1.2,0
	c-2.5,0-5,0.1-7.5,0.3C635.1,700.4,622.3,685.5,622.3,667.7z M794.4,710.7c0,27.8-8.5,53.7-23.1,75.2c-5.5-18.6-15.7-35.6-29.9-49.5
	c-8.7-8.5-18.4-15.4-28.9-20.7c11.5-12.7,18.5-29.6,18.5-48c0-39.6-32.2-71.8-71.8-71.8s-71.8,32.2-71.8,71.8
	c0,19,7.4,36.3,19.5,49.1c-27.4,14.5-48.3,39.8-57.1,70.1c-15-21.7-23.8-47.9-23.8-76.2c0-74,60.2-134.2,134.2-134.2
	c27.5,0,53.1,8.3,74.4,22.6c0.4,0.3,0.8,0.6,1.2,0.8C771.2,624.1,794.4,664.8,794.4,710.7z M733.8,558.4
	c-22.3-10.8-47.2-16.9-73.6-16.9c-67.7,0-126.3,40-153.3,97.6l-80.2-71.4c14.9-25.2,23.4-54.5,23.4-85.8c0-18.6-3-36.6-8.6-53.3
	l187.1-80.4c13.2,64,62.8,114.9,126.1,130.2L733.8,558.4z"/>
</svg>
