<?xml version="1.0" encoding="utf-8"?>
<!-- Generator: Adobe Illustrator 25.2.0, SVG Export Plug-In . SVG Version: 6.00 Build 0)  -->
<svg version="1.1" id="Layer_1" xmlns="http://www.w3.org/2000/svg" xmlns:xlink="http://www.w3.org/1999/xlink" x="0px" y="0px"
	 viewBox="0 0 1080 1080" fill="white" style="enable-background:new 0 0 1080 1080;" xml:space="preserve">
<g>
	<path d="M320.7,429.2H248c-6.2,0-11.2,5-11.2,11.2v13.8c0,6.2,5,11.2,11.2,11.2h72.7c6.2,0,11.2-5,11.2-11.2v-13.8
		C331.9,434.2,326.9,429.2,320.7,429.2z"/>
	<path d="M502.7,429.2H430c-6.2,0-11.2,5-11.2,11.2v13.8c0,6.2,5,11.2,11.2,11.2h72.7c6.2,0,11.2-5,11.2-11.2v-13.8
		C513.9,434.2,508.9,429.2,502.7,429.2z"/>
	<path d="M612,465.4h72.7c6.2,0,11.2-5,11.2-11.2v-13.8c0-6.2-5-11.2-11.2-11.2H612c-6.2,0-11.2,5-11.2,11.2v13.8
		C600.8,460.4,605.8,465.4,612,465.4z"/>
	<path d="M320.7,544.7H248c-6.2,0-11.2,5-11.2,11.2v13.8c0,6.2,5,11.2,11.2,11.2h72.7c6.2,0,11.2-5,11.2-11.2v-13.8
		C331.9,549.7,326.9,544.7,320.7,544.7z"/>
	<path d="M502.7,544.7H430c-6.2,0-11.2,5-11.2,11.2v13.8c0,6.2,5,11.2,11.2,11.2h72.7c6.2,0,11.2-5,11.2-11.2v-13.8
		C513.9,549.7,508.9,544.7,502.7,544.7z"/>
	<path d="M320.7,660.1H248c-6.2,0-11.2,5-11.2,11.2v13.8c0,6.2,5,11.2,11.2,11.2h72.7c6.2,0,11.2-5,11.2-11.2v-13.8
		C331.9,665.1,326.9,660.1,320.7,660.1z"/>
	<path d="M502.7,660.1H430c-6.2,0-11.2,5-11.2,11.2v13.8c0,6.2,5,11.2,11.2,11.2h72.7c6.2,0,11.2-5,11.2-11.2v-13.8
		C513.9,665.1,508.9,660.1,502.7,660.1z"/>
	<path d="M793.2,521.8V260.5c0-29.5-24-53.6-53.6-53.6c0,0,0,0,0,0H605.2v-2.8c0-10.5-8.5-19-19-19c-10.5,0-19,8.5-19,19v2.8h-81.9
		v-2.8c0-10.5-8.5-19-19-19c-10.5,0-19,8.5-19,19v2.8h-81.9v-2.8c0-10.5-8.5-19-19-19c-10.5,0-19,8.5-19,19v2.8H185.6
		c-29.5,0-53.6,24-53.6,53.6v72.1c0,0.5-0.1,0.9-0.1,1.4s0,0.9,0.1,1.4v449.5c0,29.5,24,53.6,53.6,53.6h413.7
		c36.5,48.5,94.5,80,159.8,80c110.2,0,199.8-89.6,199.8-199.8C959,620.1,887.2,538,793.2,521.8z M185.6,246.9h141.6v4.1
		c0,10.5,8.5,19,19,19c10.5,0,19-8.5,19-19v-4.1h81.9v4.1c0,10.5,8.5,19,19,19c10.5,0,19-8.5,19-19v-4.1h81.9v4.1
		c0,10.5,8.5,19,19,19c10.5,0,19-8.5,19-19v-4.1h134.5c0,0,0,0,0,0c7.5,0,13.6,6.1,13.6,13.6V314H172.1v-53.5
		C172.1,253,178.2,246.9,185.6,246.9z M185.6,798.5c-7.5,0-13.6-6.1-13.6-13.6V354h581.2v165c-33.4,1-64.7,10.2-92,25.7H612
		c-6.2,0-11.2,5-11.2,11.2v13.8c0,6.2,5,11.2,11.2,11.2h2.7c-34.2,35.9-55.3,84.5-55.3,137.8c0,28.4,5.9,55.3,16.6,79.8H185.6z
		 M759.2,878.5c-88.1,0-159.8-71.7-159.8-159.8s71.7-159.8,159.8-159.8c3.3,0,6.7,0.1,9.9,0.3c1.3,0.3,2.7,0.4,4.1,0.4
		c0.3,0,0.6,0,0.8,0c81.2,7.5,144.9,76,144.9,159.1C919,806.8,847.3,878.5,759.2,878.5z"/>
	<path d="M775.5,587.2c-11,0-20,9-20,20v114.3h-94.5c-11,0-20,9-20,20s9,20,20,20h114.5c11,0,20-9,20-20V607.2
		C795.5,596.2,786.6,587.2,775.5,587.2z"/>
</g>
</svg>
