<?xml version="1.0" encoding="utf-8"?>
<!-- Generator: Adobe Illustrator 25.2.0, SVG Export Plug-In . SVG Version: 6.00 Build 0)  -->
<svg version="1.1" id="Layer_1" xmlns="http://www.w3.org/2000/svg" xmlns:xlink="http://www.w3.org/1999/xlink" x="0px" y="0px"
	 viewBox="0 0 1080 1080" fill="white" style="enable-background:new 0 0 1080 1080;" xml:space="preserve">
<g>
	<path d="M539.8,493.5c80.9,0,146.8-65.8,146.8-146.8S620.7,200,539.8,200S393,265.8,393,346.8S458.8,493.5,539.8,493.5z M539.8,240
		c58.9,0,106.8,47.9,106.8,106.8s-47.9,106.8-106.8,106.8c-58.9,0-106.8-47.9-106.8-106.8S480.9,240,539.8,240z"/>
	<path d="M947,694.9h-41.9V525.6c0-30.2-16.4-58-42.8-72.6c-0.1,0-0.1-0.1-0.2-0.1l-17.6-9.4c0.8-4.2,1.3-8.6,1.3-13.1
		c0-37.6-30.6-68.2-68.2-68.2s-68.2,30.6-68.2,68.2s30.6,68.2,68.2,68.2c18.7,0,35.7-7.6,48.1-19.9l17.4,9.4
		c13.6,7.6,22.1,22,22.1,37.6v169.2h-35.4c-10.2-92.9-89.1-165.4-184.7-165.4H434.4c-95.6,0-174.5,72.5-184.7,165.4h-102
		c-11,0-20,9-20,20v113.8c0,11,9,20,20,20H947c11,0,20-9,20-20V714.9C967,703.8,958,694.9,947,694.9z M777.5,458.6
		c-15.6,0-28.2-12.7-28.2-28.2s12.7-28.2,28.2-28.2s28.2,12.7,28.2,28.2c0,4.4-1,8.6-2.8,12.3c-0.2,0.3-0.4,0.6-0.6,1
		c-0.2,0.3-0.3,0.7-0.5,1C797,452.9,787.9,458.6,777.5,458.6z M434.4,569.4h210.7c73.5,0,134.4,54.7,144.4,125.4H290.1
		C300,624.1,360.9,569.4,434.4,569.4z M927,808.7H167.8v-73.8h97c1.2,0.2,2.5,0.4,3.8,0.4c0,0,0,0,0,0c1.3,0,2.6-0.1,3.8-0.4h534.7
		c1.2,0.2,2.5,0.4,3.8,0.4c1.3,0,2.6-0.1,3.8-0.4H927V808.7z"/>
</g>
</svg>
