<svg id="Component_59_1" data-name="Component 59 – 1" xmlns="http://www.w3.org/2000/svg" width="38" height="38" viewBox="0 0 38 38">
  <circle id="Ellipse_80" data-name="Ellipse 80" cx="19" cy="19" r="19" fill="#f0f0f0" opacity="0"/>
  <g id="star-solid" transform="translate(-11.5 9.013)" fill="none">
    <path d="M29.873.687l-2.563,5.2-5.735.836a1.257,1.257,0,0,0-.695,2.143l4.149,4.043-.981,5.711a1.255,1.255,0,0,0,1.821,1.323l5.13-2.7,5.13,2.7a1.256,1.256,0,0,0,1.821-1.323l-.981-5.711,4.149-4.043a1.257,1.257,0,0,0-.695-2.143l-5.735-.836L32.126.687A1.257,1.257,0,0,0,29.873.687Z" stroke="none"/>
    <path d="M 30.9995231628418 2.923894882202148 L 28.6385383605957 7.710944175720215 L 23.35456085205078 8.481292724609375 L 27.17851638793945 12.20757484436035 L 26.27482223510742 17.46710014343262 L 30.9995174407959 14.9836540222168 L 35.72423553466797 17.46711349487305 L 34.82051849365234 12.20757484436035 L 38.64448547363281 8.481294631958008 L 33.36049652099609 7.710944175720215 L 30.9995231628418 2.923894882202148 M 30.99675369262695 -0.01267623901367188 C 31.44608879089355 -0.01262664794921875 31.89573669433594 0.2219200134277344 32.12606811523438 0.6865139007568359 L 34.68922805786133 5.883514404296875 L 40.42399597167969 6.719584465026855 C 41.45240020751953 6.868744850158691 41.86454010009766 8.136594772338867 41.11876678466797 8.862754821777344 L 36.96978759765625 12.9057445526123 L 37.95110702514648 18.61694526672363 C 38.12773895263672 19.64928436279297 37.04045104980469 20.41862678527832 36.12978744506836 19.93974494934082 L 30.9995174407959 17.24311447143555 L 25.86924743652344 19.93974494934082 C 24.95860290527344 20.42254447937012 23.87130737304688 19.64928436279297 24.04794692993164 18.61694526672363 L 25.02924728393555 12.9057445526123 L 20.88028717041016 8.862754821777344 C 20.13449859619141 8.136594772338867 20.54663848876953 6.868744850158691 21.57505798339844 6.719584465026855 L 27.30980682373047 5.883514404296875 L 29.87297821044922 0.6865139007568359 C 30.10386657714844 0.2188816070556641 30.5501537322998 -0.01272392272949219 30.99675369262695 -0.01267623901367188 Z" stroke="none" fill="#4c28b5"/>
  </g>
</svg>
