<svg id="Component_58_2" data-name="Component 58 – 2" xmlns="http://www.w3.org/2000/svg" width="28" height="28" viewBox="0 0 28 28">
  <g id="Ellipse_1" data-name="Ellipse 1" fill="none" stroke="#4c28b5" stroke-width="2">
    <ellipse cx="14" cy="14" rx="14" ry="14" stroke="none"/>
    <ellipse cx="14" cy="14" rx="13" ry="13" fill="none"/>
  </g>
  <g id="star-solid" transform="translate(-13.5 7.013)" fill="none">
    <path d="M26.748.453,25.04,3.918l-3.823.557A.838.838,0,0,0,20.753,5.9l2.766,2.7-.654,3.807a.837.837,0,0,0,1.214.882l3.42-1.8,3.42,1.8a.838.838,0,0,0,1.214-.882L31.48,8.6l2.766-2.7a.838.838,0,0,0-.463-1.429l-3.823-.557L28.251.453A.838.838,0,0,0,26.748.453Z" stroke="none"/>
    <path d="M 27.49951934814453 1.191435813903809 L 25.70407867431641 4.831827163696289 L 21.68671417236328 5.41751766204834 L 24.59396934509277 8.250507354736328 L 23.90680122375488 12.24989891052246 L 27.49951934814453 10.36145782470703 L 31.09224700927734 12.24989986419678 L 30.40506935119629 8.250516891479492 L 33.31232452392578 5.417521476745605 L 29.29494857788086 4.831827163696289 L 27.49951934814453 1.191435813903809 M 27.49767303466797 -0.01267814636230469 C 27.7972297668457 -0.01264572143554688 28.09699630737305 0.1437206268310547 28.25054931640625 0.4534473419189453 L 29.95932006835938 3.918117523193359 L 33.78250885009766 4.475497245788574 C 34.46810913085938 4.57493782043457 34.74286651611328 5.420167922973633 34.24568176269531 5.904277801513672 L 31.47970008850098 8.599597930908203 L 32.1339111328125 12.40706729888916 C 32.25166320800781 13.09529781341553 31.52681732177734 13.60818672180176 30.91969871520996 13.28893756866455 L 27.49951934814453 11.49118804931641 L 24.0793399810791 13.28893756866455 C 23.47223663330078 13.61080646514893 22.74737930297852 13.09529781341553 22.86513900756836 12.40706729888916 L 23.51933860778809 8.599597930908203 L 20.75336074829102 5.904277801513672 C 20.25616836547852 5.420167922973633 20.53092956542969 4.57493782043457 21.21653747558594 4.475497245788574 L 25.03970909118652 3.918117523193359 L 26.74848937988281 0.4534473419189453 C 26.90241241455078 0.1416921615600586 27.19993782043457 -0.01271152496337891 27.49767303466797 -0.01267814636230469 Z" stroke="none" fill="#4c28b5"/>
  </g>
</svg>
