<svg id="Component_61_1" data-name="Component 61 – 1" xmlns="http://www.w3.org/2000/svg" xmlns:xlink="http://www.w3.org/1999/xlink" width="38" height="38.001" viewBox="0 0 38 38.001">
  <defs>
    <clipPath id="clip-path">
      <circle id="Ellipse_2" data-name="Ellipse 2" cx="19" cy="19" r="19" transform="translate(0.009 0.009)" fill="#4c28b5" stroke="#707070" stroke-width="1"/>
    </clipPath>
  </defs>
  <circle id="Ellipse_3" data-name="Ellipse 3" cx="19" cy="19" r="19" fill="#4c28b5"/>
  <g id="Mask_Group_51" data-name="Mask Group 51" transform="translate(-0.009 -0.008)" clip-path="url(#clip-path)">
    <path id="star-solid" d="M29.427.653,26.986,5.6l-5.462.8a1.2,1.2,0,0,0-.662,2.041l3.951,3.85-.935,5.439a1.2,1.2,0,0,0,1.735,1.26L30.5,16.421l4.886,2.568a1.2,1.2,0,0,0,1.735-1.26l-.935-5.439,3.951-3.85A1.2,1.2,0,0,0,39.475,6.4l-5.462-.8L31.572.653A1.2,1.2,0,0,0,29.427.653Z" transform="translate(-11.491 9.02)" fill="#fff"/>
  </g>
  <g id="Ellipse_1" data-name="Ellipse 1" fill="none" stroke="#4c28b5" stroke-width="2">
    <circle cx="19" cy="19" r="19" stroke="none"/>
    <circle cx="19" cy="19" r="18" fill="none"/>
  </g>
</svg>
